<svg width="100" height="100" viewBox="0 0 100 100" fill="none" xmlns="http://www.w3.org/2000/svg">
<g clip-path="url(#clip0_379_93)">
<path d="M74.9974 16.666H24.9974C20.395 16.666 16.6641 20.397 16.6641 24.9993V74.9993C16.6641 79.6017 20.395 83.3327 24.9974 83.3327H74.9974C79.5998 83.3327 83.3307 79.6017 83.3307 74.9993V24.9993C83.3307 20.397 79.5998 16.666 74.9974 16.666Z" stroke="#1E1E1E" stroke-width="6" stroke-linecap="round" stroke-linejoin="round"/>
<path d="M33.3359 45.834V66.6673" stroke="#1E1E1E" stroke-width="6" stroke-linecap="round" stroke-linejoin="round"/>
<path d="M33.3359 33.334V33.3757" stroke="#1E1E1E" stroke-width="6" stroke-linecap="round" stroke-linejoin="round"/>
<path d="M50 66.6673V45.834" stroke="#1E1E1E" stroke-width="6" stroke-linecap="round" stroke-linejoin="round"/>
<path d="M66.6667 66.6673V54.1673C66.6667 51.9572 65.7887 49.8376 64.2259 48.2748C62.6631 46.712 60.5435 45.834 58.3333 45.834C56.1232 45.834 54.0036 46.712 52.4408 48.2748C50.878 49.8376 50 51.9572 50 54.1673" stroke="#1E1E1E" stroke-width="6" stroke-linecap="round" stroke-linejoin="round"/>
</g>
<defs>
<clipPath id="clip0_379_93">
<rect width="100" height="100" fill="white"/>
</clipPath>
</defs>
</svg>
