<svg width="100" height="100" viewBox="0 0 100 100" fill="none" xmlns="http://www.w3.org/2000/svg">
<g clip-path="url(#clip0_379_110)">
<path d="M12.5 87.5L19.375 71.6667C14.1153 64.2002 11.7611 55.071 12.7544 45.9921C13.7476 36.9132 18.0199 28.5089 24.7696 22.3563C31.5193 16.2038 40.2823 12.7259 49.4141 12.5754C58.5459 12.4249 67.4187 15.6122 74.3674 21.539C81.3162 27.4659 85.8631 35.7249 87.1549 44.7661C88.4467 53.8073 86.3946 63.0092 81.3838 70.6449C76.3729 78.2805 68.7477 83.8251 59.9391 86.2379C51.1306 88.6508 41.7443 87.7662 33.5417 83.75L12.5 87.5Z" stroke="#1E1E1E" stroke-width="6" stroke-linecap="round" stroke-linejoin="round"/>
<path d="M37.5 41.666C37.5 42.2185 37.7195 42.7485 38.1102 43.1392C38.5009 43.5299 39.0308 43.7493 39.5833 43.7493C40.1359 43.7493 40.6658 43.5299 41.0565 43.1392C41.4472 42.7485 41.6667 42.2185 41.6667 41.666V37.4993C41.6667 36.9468 41.4472 36.4169 41.0565 36.0262C40.6658 35.6355 40.1359 35.416 39.5833 35.416C39.0308 35.416 38.5009 35.6355 38.1102 36.0262C37.7195 36.4169 37.5 36.9468 37.5 37.4993V41.666ZM37.5 41.666C37.5 47.1914 39.6949 52.4904 43.6019 56.3974C47.5089 60.3044 52.808 62.4993 58.3333 62.4993M58.3333 62.4993H62.5C63.0525 62.4993 63.5824 62.2799 63.9731 61.8892C64.3638 61.4985 64.5833 60.9685 64.5833 60.416C64.5833 59.8635 64.3638 59.3336 63.9731 58.9429C63.5824 58.5522 63.0525 58.3327 62.5 58.3327H58.3333C57.7808 58.3327 57.2509 58.5522 56.8602 58.9429C56.4695 59.3336 56.25 59.8635 56.25 60.416C56.25 60.9685 56.4695 61.4985 56.8602 61.8892C57.2509 62.2799 57.7808 62.4993 58.3333 62.4993Z" stroke="#1E1E1E" stroke-width="6" stroke-linecap="round" stroke-linejoin="round"/>
</g>
<defs>
<clipPath id="clip0_379_110">
<rect width="100" height="100" fill="white"/>
</clipPath>
</defs>
</svg>
